<?xml version="1.0" encoding="UTF-8"?>
<svg width="27px" height="24px" viewBox="0 0 15 13" version="1.1" xmlns="http://www.w3.org/2000/svg" xmlns:xlink="http://www.w3.org/1999/xlink">
    <!-- Generator: Sketch 46.2 (44496) - http://www.bohemiancoding.com/sketch -->
    <title>social_in</title>
    <desc>Created with Sketch.</desc>
    <defs></defs>
    <g id="Landing" stroke="none" stroke-width="1" fill="none" fill-rule="evenodd">
        <g id="A---01-Homepage" transform="translate(-1365.000000, -4426.000000)" fill="#FFFFFF">
            <g id="footer" transform="translate(0.000000, 3900.000000)">
                <g transform="translate(0.000000, 444.000000)" id="Social">
                    <g transform="translate(1194.000000, 70.000000)">
                        <g id="icons/linkedin-circle" transform="translate(160.000000, 0.000000)">
                            <path d="M25.28,24.8 L22.168128,24.8 L22.168128,20.300288 C22.168128,19.1224947 21.6813546,18.318448 20.6109501,18.318448 C19.7922109,18.318448 19.3368957,18.8610362 19.124967,19.3839533 C19.0454938,19.5716464 19.0579117,19.833105 19.0579117,20.0945635 L19.0579117,24.8 L15.9750141,24.8 C15.9750141,24.8 16.0147507,16.829199 15.9750141,16.104655 L19.0579117,16.104655 L19.0579117,17.4693219 C19.2400378,16.8726387 20.2251741,16.0210541 21.7972531,16.0210541 C23.7476576,16.0210541 25.28,17.2717936 25.28,19.9650637 L25.28,24.8 L25.28,24.8 Z M12.8573472,15.0170198 L12.8374787,15.0170198 C11.844064,15.0170198 11.2,14.3523085 11.2,13.5097395 C11.2,12.6507779 11.8631043,12 12.8763875,12 C13.8888429,12 14.5113827,12.6491389 14.5312512,13.5072806 C14.5312512,14.3498496 13.8888429,15.0170198 12.8573472,15.0170198 L12.8573472,15.0170198 L12.8573472,15.0170198 Z M11.5551459,16.104655 L14.2994544,16.104655 L14.2994544,24.8 L11.5551459,24.8 L11.5551459,16.104655 L11.5551459,16.104655 Z" id="social_in"></path>
                        </g>
                    </g>
                </g>
            </g>
        </g>
    </g>
</svg>
