<?xml version="1.0" encoding="UTF-8"?>
<svg width="36px" height="24px" viewBox="0 0 15 11" version="1.1" xmlns="http://www.w3.org/2000/svg" xmlns:xlink="http://www.w3.org/1999/xlink">
    <!-- Generator: Sketch 46.2 (44496) - http://www.bohemiancoding.com/sketch -->
    <title>social_tw</title>
    <desc>Created with Sketch.</desc>
    <defs></defs>
    <g id="Landing" stroke="none" stroke-width="1" fill="none" fill-rule="evenodd">
        <g id="A---01-Homepage" transform="translate(-1256.000000, -4427.000000)" fill="#FFFFFF">
            <g id="footer" transform="translate(0.000000, 3900.000000)">
                <g transform="translate(0.000000, 444.000000)" id="Social">
                    <g transform="translate(1194.000000, 70.000000)">
                        <g id="icons/twitter-circle" transform="translate(52.000000, 0.000000)">
                            <g id="social_tw">
                                <path d="M21.7559055,15.0829782 C21.7559055,15.0829782 21.7559055,14.9699084 21.7559055,15.0829782 C21.1801181,14.5176289 20.4891732,14.2914891 19.7982283,14.404559 L19.7982283,14.404559 L19.7982283,14.404559 C20.4891732,14.2914891 20.8346457,14.0653494 20.9498031,13.9522795 C20.9498031,13.8392096 20.9498031,13.7261397 20.8346457,13.7261397 C20.4891732,13.7261397 20.1437008,13.8392096 19.9133858,13.9522795 C20.2588583,13.7261397 20.3740157,13.6130699 20.3740157,13.5 C20.0285433,13.5 19.6830709,13.7261397 19.2224409,14.0653494 C19.3375984,13.8392096 19.4527559,13.7261397 19.3375984,13.6130699 C19.1072835,13.7261397 18.992126,13.8392096 18.8769685,14.0653494 C18.5314961,14.404559 18.3011811,14.6306987 18.1860236,14.9699084 L18.1860236,14.9699084 C17.7253937,15.7613975 17.3799213,16.4398167 17.1496063,17.2313059 L17.0344488,17.2313059 C16.8041339,16.8920962 16.4586614,16.5528866 15.9980315,16.3267469 C15.5374016,15.9875372 14.9616142,15.7613975 14.2706693,15.4221879 C13.5797244,15.0829782 12.8887795,14.7437686 12.0826772,14.5176289 C12.0826772,15.309118 12.4281496,15.9875372 13.234252,16.4398167 L13.234252,16.4398167 C13.003937,16.4398167 12.6584646,16.4398167 12.4281496,16.5528866 C12.4281496,17.2313059 13.003937,17.7966552 14.0403543,18.022795 L14.0403543,18.022795 C13.6948819,18.022795 13.3494094,18.1358649 13.003937,18.3620046 C13.3494094,19.0404239 13.9251969,19.2665636 14.8464567,19.2665636 C14.7312992,19.3796335 14.5009843,19.4927034 14.5009843,19.4927034 C14.3858268,19.6057732 14.2706693,19.831913 14.3858268,20.0580527 C14.6161417,20.3972624 14.8464567,20.5103322 15.4222441,20.5103322 L15.4222441,20.5103322 L15.4222441,20.5103322 C14.6161417,21.3018214 13.5797244,21.7541009 12.4281496,21.641031 L12.4281496,21.641031 C11.7372047,21.641031 10.9311024,21.3018214 10.125,20.6234021 C10.9311024,21.7541009 12.0826772,22.6586599 13.4645669,23.2240092 C15.0767717,23.6762887 16.6889764,23.7893586 18.1860236,23.3370791 L18.1860236,23.3370791 C19.6830709,22.8847996 21.0649606,21.9802406 22.101378,20.736472 C22.5620079,20.0580527 22.9074803,19.3796335 23.0226378,18.7012142 C23.8287402,18.7012142 24.4045276,18.4750745 24.75,18.022795 L24.75,18.022795 C24.519685,18.1358649 23.9438976,18.1358649 23.1377953,17.9097251 L23.1377953,17.9097251 L23.1377953,17.9097251 C23.9438976,17.7966552 24.519685,17.5705155 24.6348425,17.118236 C24.0590551,17.3443757 23.4832677,17.3443757 22.9074803,17.118236 C22.7923228,16.3267469 22.4468504,15.6483276 21.7559055,15.0829782 L21.7559055,15.0829782 Z"></path>
                            </g>
                        </g>
                    </g>
                </g>
            </g>
        </g>
    </g>
</svg>
