<?xml version="1.0" encoding="utf-8"?>
<svg viewBox="28.572 -71.934 148 26.2" width="148px" height="26.2px" xmlns="http://www.w3.org/2000/svg" xmlns:bx="http://www.w3.org/2000/svg">
  <title>logos/PrimaryBid/logo reversed</title>
  <desc>Created with Sketch.</desc>
  <g id="logos/PrimaryBid/logo-reversed" stroke="none" stroke-width="1" fill="none" fill-rule="evenodd" transform="matrix(1.015624, 0, 0, 1.015624, -10.00643, -82.004021)" bx:origin="0.5 0.2666">
    <g id="Group" transform="translate(38.000000, 10.000000)" fill="#FFFFFF">
      <g id="Shape">
        <path d="M14.0893709,1.68 C15.3665944,2.8 16.0052061,4.4 16.0052061,6.44 C16.0052061,8.44 15.3665944,9.96 14.0893709,11.08 C12.8121475,12.2 10.9761388,12.76 8.66117137,12.76 L4.15097614,12.76 L4.15097614,20 L0,20 L0,0 L8.66117137,0 C10.9761388,0 12.8121475,0.56 14.0893709,1.68 Z M10.8963124,8.72 C11.4950108,8.2 11.8143167,7.44 11.8143167,6.4 C11.8143167,5.36 11.4950108,4.6 10.8963124,4.08 C10.2976139,3.56 9.33969631,3.32 8.06247289,3.32 L4.19088937,3.32 L4.19088937,9.48 L8.06247289,9.48 C9.33969631,9.48 10.2976139,9.24 10.8963124,8.72 Z" fill-rule="nonzero"/>
        <path d="M58.3132321,5.96 C59.3110629,6.92 59.8299349,8.28 59.8299349,10.04 L59.8299349,20 L55.6789588,20 L55.6789588,10.88 C55.6789588,9.84 55.4394794,9.04 55.0004338,8.56 C54.5214751,8.08 53.8828633,7.8 53.0845987,7.8 C52.1266811,7.8 51.3284165,8.16 50.6898048,8.88 C50.0511931,9.6 49.7718004,10.56 49.7718004,11.84 L49.7718004,20 L45.6208243,20 L45.6208243,10.88 C45.6208243,9.84 45.3813449,9.04 44.9422993,8.56 C44.4633406,8.08 43.8247289,7.8 43.0264642,7.8 C42.1084599,7.8 41.3501085,8.16 40.6715835,8.84 C40.0329718,9.52 39.6737527,10.56 39.6737527,11.96 L39.6737527,20 L35.5227766,20 L35.5227766,4.84 L39.2347072,4.84 L39.3544469,7.52 C39.8733189,6.52 40.5518438,5.8 41.4299349,5.28 C42.308026,4.76 43.3058568,4.52 44.3835141,4.52 C45.5010846,4.52 46.4989154,4.8 47.3770065,5.32 C48.2550976,5.84 48.8937093,6.6 49.2928416,7.6 C49.7718004,6.6 50.4902386,5.84 51.408243,5.32 C52.3262473,4.8 53.3240781,4.52 54.4416486,4.52 C55.9982646,4.56 57.3154013,5.04 58.3132321,5.96 Z"/>
        <path d="M77.391757,17.36 L77.0724512,19.88 C76.5136659,20.16 75.835141,20.32 75.1167028,20.32 C73.2008677,20.32 72.0034707,19.56 71.6442516,18.04 C71.2052061,18.8 70.5266811,19.36 69.5687636,19.72 C68.6507592,20.12 67.5331887,20.28 66.2559653,20.28 C64.7791757,20.28 63.621692,19.96 62.8234273,19.28 C61.9852495,18.6 61.5861171,17.64 61.5861171,16.4 C61.5861171,13.92 63.5418655,12.32 67.4932755,11.6 L71.1253796,10.92 L71.1253796,10.2 C71.1253796,9.4 70.8859002,8.76 70.4468547,8.28 C70.0078091,7.8 69.3691974,7.56 68.5709328,7.56 C67.6529284,7.56 66.894577,7.76 66.2958785,8.16 C65.69718,8.56 65.2980477,9.24 65.0984816,10.12 L61.7856833,8.72 C62.1049892,7.4 62.8234273,6.36 63.9809111,5.64 C65.0984816,4.88 66.5752711,4.52 68.4112798,4.52 C70.5665944,4.52 72.2429501,5 73.4802603,5.92 C74.6776573,6.84 75.2763557,8.24 75.2763557,10.08 L75.2763557,16.28 C75.2763557,16.68 75.3561822,16.96 75.5557484,17.16 C75.7553145,17.36 76.0347072,17.44 76.3939262,17.44 C76.7930586,17.48 77.1123644,17.44 77.391757,17.36 Z M70.0477223,16.84 C70.7661605,16.4 71.1652928,15.8 71.1652928,15.08 L71.1652928,13.52 L67.932321,14.24 C67.2537961,14.4 66.7349241,14.6 66.4156182,14.88 C66.0963124,15.16 65.8967462,15.52 65.8967462,16 C65.8967462,16.48 66.0563991,16.84 66.3357918,17.12 C66.6550976,17.36 67.0542299,17.48 67.6130152,17.48 C68.4911063,17.48 69.2893709,17.28 70.0477223,16.84 Z" fill-rule="nonzero"/>
        <path d="M28.6177874,20 L32.7687636,20 L32.7687636,4.84 L28.6177874,4.84 L28.6177874,20 Z M28.6177874,0 L28.6177874,2.96 L32.7687636,2.96 L32.7687636,0 L28.6177874,0 Z" fill-rule="nonzero"/>
        <path d="M22.2715835,12.44 L22.2715835,12.44 C22.2715835,11.64 22.3913232,11 22.5908894,10.44 C22.7505423,10 22.9900217,9.6 23.2694143,9.28 C23.908026,8.6 24.7062907,8.24 25.624295,8.24 L25.624295,8.24 C25.8637744,8.24 26.1032538,8.28 26.30282,8.32 L26.7817787,4.84 C26.6221258,4.84 26.7019523,4.8 26.5422993,4.8 C24.2273319,4.8 22.6308026,5.88 21.7926247,8.08 L21.6329718,4.84 L18.1206074,4.84 L18.1206074,20 L22.2715835,20 L22.2715835,12.44 L22.2715835,12.44 Z"/>
        <path d="M83.0195228,12.44 L83.0195228,12.44 C83.0195228,11.64 83.1392625,11 83.3388286,10.44 C83.4984816,10 83.737961,9.6 84.0173536,9.28 C84.6559653,8.6 85.4542299,8.24 86.3722343,8.24 C86.3722343,8.24 86.3722343,8.24 86.3722343,8.24 C86.6117137,8.24 86.8511931,8.28 87.0507592,8.32 L87.529718,4.84 C87.3700651,4.84 87.4498915,4.8 87.2902386,4.8 C84.9752711,4.8 83.3787419,5.88 82.540564,8.08 L82.3809111,4.84 L78.8685466,4.84 L78.8685466,20 L83.0195228,20 L83.0195228,12.44 Z"/>
        <path d="M98.9449024,20.28 C98.186551,22.36 97.3483731,23.8 96.3505423,24.6 C95.3527115,25.44 94.0754881,25.84 92.4390456,25.84 C90.802603,25.84 89.5253796,25.44 88.6073753,24.64 L89.6451193,21.72 C89.9644252,22.08 90.3236443,22.32 90.7227766,22.48 C91.1219089,22.6 91.6008677,22.68 92.1995662,22.68 C92.8381779,22.68 93.3171367,22.56 93.716269,22.28 C94.1154013,22 94.4347072,21.56 94.6741866,20.84 L94.9535792,20.2 L93.2772234,16.28 L88.6472885,4.84 L93.2373102,4.84 L96.0711497,13.92 L96.8694143,16.96 L97.7874187,13.76 L100.581345,4.84 L104.772234,4.84 L98.9449024,20.28 Z"/>
      </g>
      <g transform="translate(105.770065, 0.000000)" fill-rule="nonzero" id="Shape">
        <path d="M0.279392625,0 L8.7010846,0 C11.0958785,0 12.8520607,0.48 14.0095445,1.4 C15.1670282,2.32 15.7657267,3.68 15.7657267,5.44 C15.7657267,6.56 15.4464208,7.52 14.7678959,8.32 C14.0893709,9.12 13.1713666,9.64 11.9739696,9.84 L11.9739696,9.88 C13.3310195,10.08 14.4086768,10.6 15.1670282,11.44 C15.9253796,12.28 16.2845987,13.28 16.2845987,14.48 C16.2845987,16.2 15.645987,17.56 14.4086768,18.52 C13.1713666,19.48 11.3353579,19.96 8.98047722,19.96 L0.239479393,19.96 L0.239479393,0 L0.279392625,0 Z M8.14229935,8.4 C10.3774403,8.4 11.4550976,7.56 11.4550976,5.84 C11.4550976,4.12 10.3375271,3.28 8.14229935,3.28 L4.3505423,3.28 L4.3505423,8.4 L8.14229935,8.4 Z M8.66117137,16.84 C9.77874187,16.84 10.6169197,16.6 11.175705,16.16 C11.7344902,15.72 12.0138829,15.04 12.0138829,14.2 C12.0138829,13.36 11.7344902,12.72 11.175705,12.28 C10.6169197,11.84 9.77874187,11.6 8.66117137,11.6 L4.3505423,11.6 L4.3505423,16.84 L8.66117137,16.84 L8.66117137,16.84 Z"/>
        <path d="M39.9531453,0 L39.9531453,20 L36.281128,20 L36.0815618,17.2 C35.6425163,18.16 34.9639913,18.92 34.0859002,19.48 C33.2078091,20.04 32.2099783,20.32 31.0924078,20.32 C29.056833,20.32 27.5002169,19.64 26.3427332,18.24 C25.1852495,16.84 24.6264642,14.92 24.6264642,12.48 C24.6264642,10 25.1852495,8.04 26.3427332,6.68 C27.5002169,5.28 29.056833,4.6 31.0924078,4.6 C32.1700651,4.6 33.1279826,4.84 33.9262473,5.36 C34.7245119,5.84 35.3631236,6.52 35.8021692,7.4 L35.8021692,0 L39.9531453,0 Z M34.8841649,15.92 C35.5227766,15.12 35.8021692,14 35.8021692,12.56 L35.8021692,12.24 C35.8021692,10.8 35.4828633,9.68 34.8841649,8.88 C34.2455531,8.08 33.4073753,7.68 32.329718,7.68 C31.2121475,7.68 30.3340564,8.08 29.7353579,8.88 C29.0967462,9.68 28.8173536,10.84 28.8173536,12.36 C28.8173536,13.88 29.1366594,15.04 29.7353579,15.84 C30.3739696,16.64 31.2121475,17.04 32.329718,17.04 C33.4073753,17.12 34.2455531,16.72 34.8841649,15.92 Z"/>
        <path d="M18.4,20 L22.5509761,20 L22.5509761,4.84 L18.4,4.84 L18.4,20 Z M18.4,0 L18.4,2.96 L22.5509761,2.96 L22.5509761,0 L18.4,0 Z"/>
      </g>
    </g>
    <g id="Group"/>
  </g>
</svg>