<?xml version="1.0" encoding="UTF-8"?>
<svg width="112px" height="22px" viewBox="0 0 112 22" version="1.1" xmlns="http://www.w3.org/2000/svg" xmlns:xlink="http://www.w3.org/1999/xlink">
    <!-- Generator: Sketch 52.2 (67145) - http://www.bohemiancoding.com/sketch -->
    <title>Group</title>
    <desc>Created with Sketch.</desc>
    <g id="Page-1" stroke="none" stroke-width="1" fill="none" fill-rule="evenodd">
        <g id="A---1.0-Homepage" transform="translate(-30.000000, -84.000000)">
            <g id="Header/LoggedIn-QuickBook">
                <g id="Header/LoggedIn-NoBooking">
                    <g id="Group" transform="translate(30.000000, 84.000000)">
                        <path d="M40.3613129,18.8119507 C39.3643265,18.8119507 38.463193,18.6695286 37.6570383,18.3849746 C36.8508836,18.1007107 36.16185,17.6734445 35.590229,17.1046265 C35.0186079,16.5355185 34.5789666,15.8315301 34.2710138,14.9920812 C33.9633523,14.1532125 33.8095216,13.1788832 33.8095216,12.0699637 L33.8095216,3.24820885 L36.4919452,3.24820885 L36.4919452,11.9603191 C36.4919452,13.3906309 36.8380644,14.4777955 37.5308854,15.222103 C38.2234151,15.9661204 39.1816525,16.3382741 40.4055975,16.3382741 C41.6138098,16.3382741 42.5650549,15.9809137 43.2578759,15.2656128 C43.9504056,14.5506019 44.2971075,13.4854822 44.2971075,12.0699637 L44.2971075,3.24820885 L46.9792398,3.24820885 L46.9792398,11.9385642 C46.9792398,13.0764902 46.8219129,14.0763452 46.5066764,14.9372589 C46.1914399,15.7987527 45.7480111,16.5172444 45.17639,17.0936041 C44.604769,17.6702538 43.9122393,18.1007107 43.0988009,18.3849746 C42.2853626,18.6695286 41.3728666,18.8119507 40.3613129,18.8119507" id="Fill-148" fill="#FFFFFF"></path>
                        <path d="M56.7148322,10.8437128 C57.6850148,10.8437128 58.457082,10.613401 59.0304511,10.151327 C59.6035289,9.68954315 59.8907962,9.06300218 59.8907962,8.27141407 L59.8907962,8.22790428 C59.8907962,7.39280638 59.6111039,6.75872371 59.0523021,6.32652647 C58.4937916,5.89403916 57.7068658,5.67765047 56.6923986,5.67765047 L52.7449502,5.67765047 L52.7449502,10.8437128 L56.7148322,10.8437128 Z M50.0625265,3.24806381 L56.922562,3.24806381 C57.8898311,3.24806381 58.7472627,3.38323423 59.4948568,3.65270486 C60.2424509,3.92333575 60.8653489,4.29839014 61.3635508,4.78018854 C61.7740574,5.20368383 62.0892939,5.6924438 62.3089689,6.24704859 C62.5289352,6.80165337 62.6390641,7.41456128 62.6390641,8.0857723 L62.6390641,8.12928209 C62.6390641,8.75698332 62.5469987,9.32261059 62.3640333,9.82587382 C62.1804853,10.3294271 61.9278882,10.7749674 61.6056594,11.1613343 C61.2831393,11.5479913 60.8979797,11.8763452 60.4513461,12.1463959 C60.0038385,12.4164467 59.5094241,12.6244235 58.9669377,12.7700363 L63.1226986,18.5710515 L59.9344981,18.5710515 L56.4499986,13.6645975 C56.2562535,13.3919362 55.9415997,13.2297897 55.605969,13.2297897 L52.7449502,13.2297897 L52.7449502,18.5710515 L50.0625265,18.5710515 L50.0625265,3.24806381 Z" id="Fill-150" fill="#FFFFFF"></path>
                        <path d="M72.9752957,16.1849746 C73.8959494,16.1849746 74.6193618,16.0097752 75.1458242,15.6596664 C75.6717039,15.3092676 75.9347895,14.7842495 75.9347895,14.0834518 L75.9347895,14.0396519 C75.9347895,13.3829442 75.6752001,12.8762001 75.156604,12.5182596 C74.6377166,12.1611893 73.8446725,11.9825091 72.7780544,11.9825091 L68.5034242,11.9825091 L68.5034242,16.1849746 L72.9752957,16.1849746 Z M72.1848737,9.70549674 C73.0609514,9.70549674 73.7622215,9.53435823 74.2883926,9.19121102 C74.8142723,8.84835388 75.0773579,8.32652647 75.0773579,7.62601885 L75.0773579,7.58192893 C75.0773579,6.96931109 74.8471944,6.4915736 74.3868676,6.1484264 C73.9265407,5.80556925 73.2581927,5.63414068 72.3818236,5.63414068 L68.5034242,5.63414068 L68.5034242,9.70549674 L72.1848737,9.70549674 Z M65.8210006,3.24806381 L72.7122101,3.24806381 C74.4821378,3.24806381 75.8211645,3.70056563 76.7287076,4.60527919 C77.4159931,5.29128354 77.7597815,6.13740392 77.7597815,7.14451051 L77.7597815,7.18831037 C77.7597815,7.65531545 77.6980161,8.06749819 77.574194,8.42485859 C77.4506633,8.78279913 77.2910056,9.09635968 77.0946383,9.36612038 C76.898271,9.6364612 76.6654855,9.87344453 76.3968644,10.0779405 C76.1276606,10.2821465 75.855252,10.4573459 75.5790559,10.6032487 C76.030351,10.7636548 76.442023,10.9498767 76.8137807,11.1613343 C77.185247,11.3730819 77.5057277,11.6245685 77.7758055,11.9166642 C78.0450093,12.20876 78.2527391,12.551327 78.3984122,12.9455257 C78.5440852,13.3394344 78.6172131,13.7988978 78.6172131,14.324496 L78.6172131,14.3682959 C78.6172131,15.0543002 78.4820285,15.6596664 78.211368,16.1849746 C77.9404161,16.7105729 77.5564219,17.1479913 77.0588027,17.4983901 C76.5614749,17.8484989 75.961302,18.1150689 75.2591578,18.2975199 C74.5567224,18.479971 73.7808677,18.5710515 72.9324678,18.5710515 L65.8210006,18.5710515 L65.8210006,3.24806381 Z" id="Fill-152" fill="#FFFFFF"></path>
                        <path d="M90.6211681,12.4856273 L87.9605954,6.35625816 L85.3224564,12.4856273 L90.6211681,12.4856273 Z M86.7515091,3.13856418 L89.2579597,3.13856418 L96.0300086,18.5709065 L93.171612,18.5709065 L91.8765785,15.502016 C91.7154641,15.1202901 91.339919,14.8717041 90.9238767,14.8717041 L84.333045,14.8717041 L82.7501616,18.5709065 L79.9794601,18.5709065 L86.7515091,3.13856418 Z" id="Fill-154" fill="#FFFFFF"></path>
                        <polygon id="Fill-157" fill="#FFFFFF" points="109.310293 3.24809282 109.310293 13.8430167 101.082096 3.24809282 98.5808895 3.24809282 98.5808895 18.5710805 101.263313 18.5710805 101.263313 7.67013778 109.732453 18.5710805 111.992716 18.5710805 111.992716 3.24809282"></polygon>
                        <path d="M1.9762298,2.01891226 C4.33904675,2.47141407 6.0990686,4.57670776 6.0990686,6.9888905 C6.0990686,7.51622915 6.52967815,7.94465555 7.05905404,7.94465555 C7.58842992,7.94465555 8.01903947,7.51622915 8.01903947,6.9888905 C8.01903947,4.19875272 10.2994055,1.92870196 13.1021551,1.92870196 C13.4753694,1.92870196 13.846253,1.96902103 14.2078135,2.04936911 C12.8915118,3.35408267 12.1418783,5.13914431 12.1418783,6.9888905 L12.1418783,15.0109355 C12.1418783,17.8010732 9.86180361,20.0714141 7.05905404,20.0714141 C4.25630446,20.0714141 1.9762298,17.8010732 1.9762298,15.0109355 L1.9762298,2.01891226 Z M18.0393062,2.04936911 C18.4005754,1.96902103 18.7711677,1.92870196 19.1449647,1.92870196 C21.9477143,1.92870196 24.227789,4.19875272 24.227789,6.9888905 L24.227789,19.9812038 C21.864972,19.528702 20.1046588,17.4234083 20.1046588,15.0109355 L20.1046588,6.9888905 C20.1046588,5.13885424 19.3550253,3.35408267 18.0393062,2.04936911 Z M19.1449647,0.0168817984 C18.0867956,0.0168817984 17.0702891,0.246903553 16.1234142,0.699695431 C15.176248,0.246903553 14.1603241,0.0168817984 13.1021551,0.0168817984 C10.6076497,0.0168817984 8.31708654,1.33232777 7.05905404,3.46836838 C5.80073019,1.33232777 3.51045841,0.0168817984 1.01624437,0.0168817984 C0.486868485,0.0168817984 0.0559675877,0.44559826 0.0559675877,0.972936911 L0.0559675877,15.0109355 C0.0559675877,18.8551704 3.19755269,21.9829442 7.05905404,21.9829442 C10.920264,21.9829442 14.0618491,18.8551704 14.0618491,15.0109355 L14.0618491,6.9888905 C14.0618491,5.3888905 14.8304202,3.87678028 16.1234142,2.92217549 C17.4161169,3.87678028 18.1849793,5.3888905 18.1849793,6.9888905 L18.1849793,15.0109355 C18.1849793,18.8551704 21.326273,21.9829442 25.1877744,21.9829442 C25.7171503,21.9829442 26.1480512,21.5542277 26.1480512,21.0271791 L26.1480512,6.9888905 C26.1480512,3.14465555 23.0064661,0.0168817984 19.1449647,0.0168817984 Z" id="Fill-158" fill="#F4CB0B"></path>
                    </g>
                </g>
            </g>
        </g>
    </g>
</svg>
