<svg fill="#1e5751" viewBox="0 0 260 123" xmlns="http://www.w3.org/2000/svg"><path d="m63.403 86.9c-4.788 0-8.151 3.926-8.151 8.563s3.366 8.723 8.275 8.723 8.072-3.926 8.072-8.606-3.367-8.683-8.193-8.683zm58.182.556h-3.614a.061.061 0 0 0 -.061.062v16.056c0 .034.027.062.061.062h3.574c4.322 0 7.021-2.695 7.021-8.05 0-5.354-2.659-8.13-6.981-8.13zm75.803 10.826h-3.824a.062.062 0 0 0 -.062.062v5.23c0 .034.028.062.062.062h3.784c2.102 0 3.41-.912 3.41-2.816 0-1.707-1.15-2.538-3.37-2.538zm-26.465-10.838h-2.794a.062.062 0 0 0 -.062.062v7.37c0 .033.028.061.062.061h2.714c2.974 0 4.798-1.273 4.798-3.855 0-2.327-1.905-3.638-4.721-3.638zm22.641 4.968h3.169c2.025 0 3.101-.863 3.101-2.541 0-1.68-1.033-2.415-3.061-2.415h-3.212a.061.061 0 0 0 -.061.062v4.832c0 .034.027.062.061.062z"/><path d="m250.08 1.492-56.12 47.125a5.747 5.747 0 0 1 -7.809-.133l-52.346-46.887a5.744 5.744 0 0 0 -7.95 0l-52.34 46.884a5.747 5.747 0 0 1 -7.809.133l-56.126-47.122c-3.703-3.314-9.58-.686-9.58 4.282v110.716a5.746 5.746 0 0 0 5.747 5.747h248.166a5.746 5.746 0 0 0 5.747-5.747v-110.713c0-4.968-5.877-7.595-9.58-4.285zm-209.342 108.803h-6.684a.06.06 0 0 1 -.059-.046l-4.402-17.185c-.015-.062-.102-.062-.12 0l-4.402 17.185a.059.059 0 0 1 -.059.046h-6.684a.06.06 0 0 1 -.058-.046l-7.543-29.223a.06.06 0 0 1 .059-.077h7.175a.06.06 0 0 1 .058.05l4.016 18.065c.034.155.253.155.29 0l4.322-18.115h5.775l4.408 18.483c.016.065.105.062.12 0l4.1-18.437a.062.062 0 0 1 .059-.05h7.175a.06.06 0 0 1 .058.078l-7.542 29.223a.06.06 0 0 1 -.06.046zm23.02.476c-8.17 0-15.82-5.87-15.82-14.554 0-8.683 6.544-15.902 15.465-15.902 8.922 0 15.506 6.622 15.506 15.03 0 8.409-6.742 15.426-15.147 15.426h-.003zm42.868-.618a.061.061 0 0 1 -.061.062h-6.409a.062.062 0 0 1 -.052-.028l-11.13-17.172c-.033-.053-.114-.028-.114.034l.195 17.104a.062.062 0 0 1 -.062.062h-7.053a.062.062 0 0 1 -.062-.062v-29.223c0-.034.028-.061.062-.061h6.368c.022 0 .04.009.053.027l11.286 17.8c.034.053.115.028.115-.034l-.313-17.732c0-.034.028-.061.062-.061h7.052a.06.06 0 0 1 .061.061v29.223h.003zm14.561.062h-10.446a.062.062 0 0 1 -.062-.062v-29.223c0-.034.028-.061.062-.061h9.932c3.648 0 6.542.633 8.607 1.783 4.164 2.38 6.779 6.9 6.779 12.888 0 9.676-5.71 14.672-14.872 14.672zm35.599-22.824a.061.061 0 0 1 -.061.062h-10.551a.062.062 0 0 0 -.062.062v4.693c0 .034.028.061.062.061h10.551c.034 0 .061.028.061.062v5.96a.061.061 0 0 1 -.061.062h-10.551a.062.062 0 0 0 -.062.062v5.156c0 .034.028.062.062.062h10.551c.034 0 .061.028.061.062v6.461a.061.061 0 0 1 -.061.062h-17.729a.062.062 0 0 1 -.062-.062v-29.223c0-.034.028-.061.062-.061h17.729c.034 0 .061.028.061.061v6.461zm18.783 12.27 7.107 10.458a.06.06 0 0 1 -.049.096h-8.257c-.022 0-.04-.013-.053-.031l-6.089-10.087h-.161v10.056a.062.062 0 0 1 -.062.062h-7.054a.062.062 0 0 1 -.062-.062v-29.223c0-.034.028-.061.062-.061h9.536c3.051 0 5.395.398 6.937 1.072 3.172 1.428 5.395 4.879 5.395 9.043 0 4.609-2.739 7.762-7.206 8.584-.044.01-.065.056-.04.093zm28.957 8.572c-2.3 1.626-3.809 1.982-8.449 1.982h-9.694a.062.062 0 0 1 -.062-.062v-29.223c0-.034.028-.061.062-.061h9.682c2.102 0 3.648.12 4.68.355 3.33.754 6.106 3.333 6.106 7.299 0 2.454-1.061 4.643-3.206 5.883-.046.024-.04.09.009.108 3.119 1.128 4.276 3.45 4.276 6.779 0 2.816-1.191 5.391-3.41 6.94zm23.618 1.923a.062.062 0 0 1 -.062.062h-16.907a.061.061 0 0 1 -.061-.062v-29.223a.06.06 0 0 1 .061-.061h7.373c.034 0 .062.028.062.061v22.638c0 .034.028.062.062.062h9.41c.034 0 .062.028.062.062zm20.684-29.195-9.058 18.576s-.006.019-.006.028v10.591a.062.062 0 0 1 -.062.062h-7.369a.062.062 0 0 1 -.062-.062v-10.594s0-.019-.006-.025l-8.718-18.579a.06.06 0 0 1 .056-.086h7.682c.024 0 .049.015.058.04l4.6 11.595a.062.062 0 0 0 .115 0l4.637-11.595a.06.06 0 0 1 .055-.04h8.022c.047 0 .074.046.056.09z"/></svg>