<?xml version="1.0" encoding="UTF-8"?>
<svg width="234px" height="46px" viewBox="0 0 234 46" version="1.1" xmlns="http://www.w3.org/2000/svg" xmlns:xlink="http://www.w3.org/1999/xlink">
    <!-- Generator: Sketch 55.2 (78181) - https://sketchapp.com -->
    <title>Urban-logo</title>
    <desc>Created with Sketch.</desc>
    <g id="Page-1" stroke="none" stroke-width="1" fill="none" fill-rule="evenodd">
        <g id="Urban-logo" fill-rule="nonzero">
            <path d="M83.9296949,40 C81.8100125,40 79.894122,39.6980206 78.180165,39.0946771 C76.4662079,38.4919488 75.0012608,37.5860108 73.7859434,36.3799388 C72.5706257,35.1732518 71.635909,33.6805763 70.9811737,31.9006821 C70.3270578,30.1220181 70,28.0561353 70,25.7048791 L70,7 L75.7030727,7 L75.7030727,25.4723983 C75.7030727,28.5051066 76.4389531,30.8102355 77.9119526,32.3884002 C79.3843328,33.9659498 81.4216313,34.755032 84.0238479,34.755032 C86.5926154,34.755032 88.6150477,33.9973162 90.0880472,32.4806546 C91.5604273,30.9646079 92.2975466,28.706221 92.2975466,25.7048791 L92.2975466,7 L98,7 L98,25.4262711 C98,27.8390301 97.6655089,29.9590354 96.9952879,31.7844416 C96.3250669,33.6110779 95.3822975,35.134505 94.1669799,36.3565678 C92.9516625,37.5792455 91.4792823,38.4919488 89.7498395,39.0946771 C88.0203968,39.6980206 86.0803486,40 83.9296949,40" id="Fill-148" fill="#3C3C3C"></path>
            <path d="M118.752671,22.8624919 C120.758382,22.8624919 122.354519,22.3815166 123.539875,21.4165372 C124.72463,20.4521637 125.318513,19.1437171 125.318513,17.4905918 L125.318513,17.3997274 C125.318513,15.6557377 124.74029,14.3315413 123.585049,13.4289554 C122.43041,12.5257638 120.803556,12.0738651 118.706293,12.0738651 L110.54552,12.0738651 L110.54552,22.8624919 L118.752671,22.8624919 Z M105,7 L119.182122,7 C121.18181,7 122.954425,7.28228525 124.499966,7.84503844 C126.045508,8.41021467 127.333259,9.19346535 128.363219,10.1996365 C129.211881,11.0840495 129.863587,12.104759 130.317733,13.2629766 C130.772481,14.4211941 131.000156,15.7011699 131.000156,17.1029039 L131.000156,17.1937682 C131.000156,18.5046379 130.809824,19.6858744 130.43157,20.736872 C130.052111,21.7884753 129.529904,22.7189263 128.863743,23.5258017 C128.19698,24.3332828 127.400718,25.0190058 126.477369,25.5829704 C125.552212,26.1469352 124.530082,26.5812668 123.408571,26.8853596 L132,39 L125.408861,39 L118.205166,28.7535304 C117.804627,28.1841139 117.154126,27.8454927 116.460258,27.8454927 L110.54552,27.8454927 L110.54552,39 L105,39 L105,7 Z" id="Fill-150" fill="#3C3C3C"></path>
            <path d="M152.095558,34.0169991 C154.038137,34.0169991 155.564536,33.6511187 156.675372,32.9199636 C157.784978,32.1882028 158.340088,31.0917731 158.340088,29.6282513 L158.340088,29.5367811 C158.340088,28.1653353 157.792354,27.1070684 156.698117,26.3595578 C155.603265,25.6138644 153.929942,25.2407149 151.679379,25.2407149 L142.659912,25.2407149 L142.659912,34.0169991 L152.095558,34.0169991 Z M150.427768,20.4854806 C152.276291,20.4854806 153.755971,20.1280809 154.866192,19.411464 C155.975797,18.695453 156.530908,17.6056866 156.530908,16.1427706 L156.530908,16.0506947 C156.530908,14.7713247 156.045263,13.7736342 155.073974,13.0570174 C154.102684,12.3410063 152.69247,11.9830008 150.843332,11.9830008 L142.659912,11.9830008 L142.659912,20.4854806 L150.427768,20.4854806 Z M137,7 L151.540448,7 C155.274994,7 158.100339,7.94498922 160.015255,9.83436188 C161.465427,11.2669897 162.19082,13.0339984 162.19082,15.1372052 L162.19082,15.2286753 C162.19082,16.2039526 162.060495,17.0647409 161.79923,17.81104 C161.538581,18.5585507 161.201703,19.2133798 160.787368,19.7767387 C160.373033,20.3413092 159.881856,20.836217 159.315066,21.2632794 C158.747046,21.6897361 158.172264,22.0556165 157.58949,22.3603149 C158.541723,22.6953015 159.41035,23.0842009 160.194759,23.5258017 C160.978552,23.9680081 161.654767,24.493204 162.224631,25.1032066 C162.79265,25.7132095 163.23096,26.4286146 163.53833,27.2518456 C163.8457,28.0744709 164,29.0339985 164,30.1316397 L164,30.2231099 C164,31.6557376 163.714761,32.9199636 163.143667,34.0169991 C162.571959,35.1146405 161.761731,36.0281301 160.711755,36.7598909 C159.662394,37.491046 158.396029,38.0477416 156.914506,38.428766 C155.432367,38.8097906 153.795314,39 152.005191,39 L137,39 L137,7 Z" id="Fill-152" fill="#3C3C3C"></path>
            <path d="M189.542412,26.3817642 L183.9065,13.6721049 L178.31811,26.3817642 L189.542412,26.3817642 Z M181.345283,7 L186.654717,7 L201,39 L194.945037,39 L192.201757,32.6364491 C191.860467,31.8449148 191.064947,31.329455 190.183642,31.329455 L176.222232,31.329455 L172.869198,39 L167,39 L181.345283,7 Z" id="Fill-154" fill="#3C3C3C"></path>
            <polygon id="Fill-157" fill="#3C3C3C" points="228.39988 7 228.39988 29.1260743 211.221793 7 206 7 206 39 211.600122 39 211.600122 16.2348465 229.281227 39 234 39 234 7"></polygon>
            <path d="M4.04775729,4.19253117 C9.02838414,5.1401331 12.7383677,9.54891188 12.7383677,14.6003592 C12.7383677,15.7046799 13.6460578,16.6018645 14.7619393,16.6018645 C15.8778208,16.6018645 16.7855109,15.7046799 16.7855109,14.6003592 C16.7855109,8.75742128 21.5923379,4.00361821 27.5003071,4.00361821 C28.2870127,4.00361821 29.0688053,4.08805197 29.8309455,4.25631206 C27.0562881,6.98856433 25.4761214,10.7267325 25.4761214,14.6003592 L25.4761214,31.3996408 C25.4761214,37.2425786 20.6699085,41.9969892 14.7619393,41.9969892 C8.85397009,41.9969892 4.04775729,37.2425786 4.04775729,31.3996408 L4.04775729,4.19253117 Z M37.907422,4.25631206 C38.6689482,4.08805197 39.4501268,4.00361821 40.2380606,4.00361821 C46.1460298,4.00361821 50.9522427,8.75742128 50.9522427,14.6003592 L50.9522427,41.8080763 C45.9716158,40.8604743 42.2610181,36.4516955 42.2610181,31.3996408 L42.2610181,14.6003592 C42.2610181,10.7261251 40.6808513,6.98856433 37.907422,4.25631206 Z M40.2380606,0 C38.0075258,0 35.8648124,0.481697653 33.8688767,1.42990703 C31.8723271,0.481697653 29.7308417,0 27.5003071,0 C22.2420917,0 17.41377,2.75472743 14.7619393,7.22789455 C12.1094945,2.75472743 7.281787,0 2.02418572,0 C0.908304208,0 0,0.897792097 0,2.00211282 L0,31.3996408 C0,39.4500052 6.62220707,46 14.7619393,46 C22.9010573,46 29.5232644,39.4500052 29.5232644,31.3996408 L29.5232644,14.6003592 C29.5232644,11.2497359 31.1433501,8.08316606 33.8688767,6.08409042 C36.5937894,8.08316606 38.2144891,11.2497359 38.2144891,14.6003592 L38.2144891,31.3996408 C38.2144891,39.4500052 44.8360819,46 52.9758142,46 C54.0916958,46 55,45.1022078 55,43.9984945 L55,14.6003592 C55,6.54999471 48.3777929,0 40.2380606,0 Z" id="Fill-158" fill="#F4CB0B"></path>
        </g>
    </g>
</svg>